<svg width="753" height="544" viewBox="0 0 753 544" fill="none" xmlns="http://www.w3.org/2000/svg">
<g filter="url(#filter0_b_7_49)">
<path d="M279.011 167.5C166.611 136.3 381.178 42.8333 502.511 0L636 29.5C838 95.5 590.011 253.5 680.011 369.5C770.011 485.5 488.011 657.5 326.511 438C165.011 218.5 2.51107 415.5 0.0110677 253.5C-2.48893 91.5 419.511 206.5 279.011 167.5Z" fill="#C0F73E"/>
</g>
<path d="M75 343.852C75 327.186 488.134 328.971 694.702 331.947C713.708 332.113 751.52 335.618 750.72 348.316C750.212 356.382 750.214 374.217 750.37 390.477C750.459 399.814 750.598 408.631 750.72 414.782V442.559C750.72 443.289 754.509 449.387 734.215 451.375C726.92 452.09 716.515 452.274 701.704 451.487C656.889 449.107 290.237 444.543 112.512 442.559H93.1467H89.5047C77.9009 442.559 75 417.428 75 404.862V386.509V343.852Z" fill="#040700"/>
<path d="M75 386.509C75 393.812 75 400.338 75 404.862C75 417.428 77.9009 442.559 89.5047 442.559C90.7551 442.559 91.9702 442.559 93.1467 442.559M75 386.509C75 372.191 75 354.889 75 343.852C75 327.186 488.134 328.971 694.702 331.947C713.708 332.113 751.52 335.618 750.72 348.316C750.212 356.382 750.214 374.217 750.37 390.477M75 386.509L93.1467 386.616M750.37 390.477C750.459 399.814 750.598 408.631 750.72 414.782C750.72 423.711 750.72 441.766 750.72 442.559C750.72 443.289 754.509 449.387 734.215 451.375M750.37 390.477L734.215 390.382M93.1467 386.616V442.559M93.1467 386.616L734.215 390.382M93.1467 442.559C102.889 442.559 109.983 442.559 112.512 442.559C290.237 444.543 656.889 449.107 701.704 451.487C716.515 452.274 726.92 452.09 734.215 451.375M734.215 390.382V451.375" stroke="#1A2B1B" stroke-width="3"/>
<path d="M733.5 391.5L93.5 386.5V434L733.5 441V391.5Z" fill="#DFFCCD" stroke="#192400"/>
<path d="M115 415.5V437.5H124.5V415.5H121V384H128.5V415.5H124.5V437.5H136H145.5V415.5H141.5V384H149.5V415.5H145.5V437.5H156.5V415.5H152.5V384H160.5V415.5H156.5V437.5H166.5V415.5H163.5V384H170.5V415.5H166.5V437.5H156.5H145.5H136H124.5H115V415.5H111V384H119V415.5H115Z" fill="#040700"/>
<path d="M104.5 384V433V437.5H115M115 437.5V415.5M115 437.5H124.5M115 415.5H111V384H119V415.5H115ZM124.5 437.5V415.5H121M124.5 437.5H136M121 415.5H128.5V384H121V415.5ZM136 437.5V384M136 437.5H145.5M145.5 437.5V415.5M145.5 437.5H156.5M145.5 415.5H141.5V384H149.5V415.5H145.5ZM156.5 437.5V415.5M156.5 437.5H166.5V415.5M156.5 415.5H152.5V384H160.5V415.5H156.5ZM166.5 415.5H163.5V384H170.5V415.5H166.5ZM175 437.5V384" stroke="#040700" stroke-width="0.5"/>
<path d="M185.5 418.5V440.5H195V418.5H191.5V387H199V418.5H195V440.5H206.5H216V418.5H212V387H220V418.5H216V440.5H227V418.5H223V387H231V418.5H227V440.5H237V418.5H234V387H241V418.5H237V440.5H227H216H206.5H195H185.5V418.5H181.5V387H189.5V418.5H185.5Z" fill="#040700"/>
<path d="M175 387V436V440.5H185.5M185.5 440.5V418.5M185.5 440.5H195M185.5 418.5H181.5V387H189.5V418.5H185.5ZM195 440.5V418.5H191.5M195 440.5H206.5M191.5 418.5H199V387H191.5V418.5ZM206.5 440.5V387M206.5 440.5H216M216 440.5V418.5M216 440.5H227M216 418.5H212V387H220V418.5H216ZM227 440.5V418.5M227 440.5H237V418.5M227 418.5H223V387H231V418.5H227ZM237 418.5H234V387H241V418.5H237ZM245.5 440.5V387" stroke="#040700" stroke-width="0.5"/>
<path d="M256.5 418.5V440.5H266V418.5H262.5V387H270V418.5H266V440.5H277.5H287V418.5H283V387H291V418.5H287V440.5H298V418.5H294V387H302V418.5H298V440.5H308V418.5H305V387H312V418.5H308V440.5H298H287H277.5H266H256.5V418.5H252.5V387H260.5V418.5H256.5Z" fill="#040700"/>
<path d="M246 387V436V440.5H256.5M256.5 440.5V418.5M256.5 440.5H266M256.5 418.5H252.5V387H260.5V418.5H256.5ZM266 440.5V418.5H262.5M266 440.5H277.5M262.5 418.5H270V387H262.5V418.5ZM277.5 440.5V387M277.5 440.5H287M287 440.5V418.5M287 440.5H298M287 418.5H283V387H291V418.5H287ZM298 440.5V418.5M298 440.5H308V418.5M298 418.5H294V387H302V418.5H298ZM308 418.5H305V387H312V418.5H308ZM316.5 440.5V387" stroke="#040700" stroke-width="0.5"/>
<path d="M327.5 418.5V440.5H337V418.5H333.5V387H341V418.5H337V440.5H348.5H358V418.5H354V387H362V418.5H358V440.5H369V418.5H365V387H373V418.5H369V440.5H379V418.5H376V387H383V418.5H379V440.5H369H358H348.5H337H327.5V418.5H323.5V387H331.5V418.5H327.5Z" fill="#040700"/>
<path d="M317 387V436V440.5H327.5M327.5 440.5V418.5M327.5 440.5H337M327.5 418.5H323.5V387H331.5V418.5H327.5ZM337 440.5V418.5H333.5M337 440.5H348.5M333.5 418.5H341V387H333.5V418.5ZM348.5 440.5V387M348.5 440.5H358M358 440.5V418.5M358 440.5H369M358 418.5H354V387H362V418.5H358ZM369 440.5V418.5M369 440.5H379V418.5M369 418.5H365V387H373V418.5H369ZM379 418.5H376V387H383V418.5H379ZM387.5 440.5V387" stroke="#040700" stroke-width="0.5"/>
<path d="M398.5 418.5V440.5H408V418.5H404.5V387H412V418.5H408V440.5H419.5H429V418.5H425V387H433V418.5H429V440.5H440V418.5H436V387H444V418.5H440V440.5H450V418.5H447V387H454V418.5H450V440.5H440H429H419.5H408H398.5V418.5H394.5V387H402.5V418.5H398.5Z" fill="#040700"/>
<path d="M388 387V436V440.5H398.5M398.5 440.5V418.5M398.5 440.5H408M398.5 418.5H394.5V387H402.5V418.5H398.5ZM408 440.5V418.5H404.5M408 440.5H419.5M404.5 418.5H412V387H404.5V418.5ZM419.5 440.5V387M419.5 440.5H429M429 440.5V418.5M429 440.5H440M429 418.5H425V387H433V418.5H429ZM440 440.5V418.5M440 440.5H450V418.5M440 418.5H436V387H444V418.5H440ZM450 418.5H447V387H454V418.5H450ZM458.5 440.5V387" stroke="#040700" stroke-width="0.5"/>
<path d="M469.5 420.5V442.5H479V420.5H475.5V389H483V420.5H479V442.5H490.5H500V420.5H496V389H504V420.5H500V442.5H511V420.5H507V389H515V420.5H511V442.5H521V420.5H518V389H525V420.5H521V442.5H511H500H490.5H479H469.5V420.5H465.5V389H473.5V420.5H469.5Z" fill="#040700"/>
<path d="M459 389V438V442.5H469.5M469.5 442.5V420.5M469.5 442.5H479M469.5 420.5H465.5V389H473.5V420.5H469.5ZM479 442.5V420.5H475.5M479 442.5H490.5M475.5 420.5H483V389H475.5V420.5ZM490.5 442.5V389M490.5 442.5H500M500 442.5V420.5M500 442.5H511M500 420.5H496V389H504V420.5H500ZM511 442.5V420.5M511 442.5H521V420.5M511 420.5H507V389H515V420.5H511ZM521 420.5H518V389H525V420.5H521ZM529.5 442.5V389" stroke="#040700" stroke-width="0.5"/>
<path d="M540.5 420.5V442.5H550V420.5H546.5V389H554V420.5H550V442.5H561.5H571V420.5H567V389H575V420.5H571V442.5H582V420.5H578V389H586V420.5H582V442.5H592V420.5H589V389H596V420.5H592V442.5H582H571H561.5H550H540.5V420.5H536.5V389H544.5V420.5H540.5Z" fill="#040700"/>
<path d="M530 389V438V442.5H540.5M540.5 442.5V420.5M540.5 442.5H550M540.5 420.5H536.5V389H544.5V420.5H540.5ZM550 442.5V420.5H546.5M550 442.5H561.5M546.5 420.5H554V389H546.5V420.5ZM561.5 442.5V389M561.5 442.5H571M571 442.5V420.5M571 442.5H582M571 420.5H567V389H575V420.5H571ZM582 442.5V420.5M582 442.5H592V420.5M582 420.5H578V389H586V420.5H582ZM592 420.5H589V389H596V420.5H592ZM600.5 442.5V389" stroke="#040700" stroke-width="0.5"/>
<path d="M611.5 422.5V444.5H621V422.5H617.5V391H625V422.5H621V444.5H632.5H642V422.5H638V391H646V422.5H642V444.5H653V422.5H649V391H657V422.5H653V444.5H663V422.5H660V391H667V422.5H663V444.5H653H642H632.5H621H611.5V422.5H607.5V391H615.5V422.5H611.5Z" fill="#040700"/>
<path d="M601 391V440V444.5H611.5M611.5 444.5V422.5M611.5 444.5H621M611.5 422.5H607.5V391H615.5V422.5H611.5ZM621 444.5V422.5H617.5M621 444.5H632.5M617.5 422.5H625V391H617.5V422.5ZM632.5 444.5V391M632.5 444.5H642M642 444.5V422.5M642 444.5H653M642 422.5H638V391H646V422.5H642ZM653 444.5V422.5M653 444.5H663V422.5M653 422.5H649V391H657V422.5H653ZM663 422.5H660V391H667V422.5H663ZM671.5 444.5V391" stroke="#040700" stroke-width="0.5"/>
<path d="M682.5 422.5V444.5H692V422.5H688.5V391H696V422.5H692V444.5H703.5H713V422.5H709V391H717V422.5H713V444.5H724V422.5H720V391H728V422.5H724V444.5H734V422.5H731V391H738V422.5H734V444.5H724H713H703.5H692H682.5V422.5H678.5V391H686.5V422.5H682.5Z" fill="#040700"/>
<path d="M672 391V440V444.5H682.5M682.5 444.5V422.5M682.5 444.5H692M682.5 422.5H678.5V391H686.5V422.5H682.5ZM692 444.5V422.5H688.5M692 444.5H703.5M688.5 422.5H696V391H688.5V422.5ZM703.5 444.5V391M703.5 444.5H713M713 444.5V422.5M713 444.5H724M713 422.5H709V391H717V422.5H713ZM724 444.5V422.5M724 444.5H734V422.5M724 422.5H720V391H728V422.5H724ZM734 422.5H731V391H738V422.5H734ZM742.5 444.5V391" stroke="#040700" stroke-width="0.5"/>
<path d="M383 93.5C277 107.007 461 36 528 55C404.5 224 583.735 22.1406 626 93.5C634 107.007 631.677 104.384 626 107.007C615.343 111.93 597.133 117.133 641.5 161.5C700 211.5 542 146 502.5 148.5C463 151 601 269.5 573.5 285C546 300.5 500.5 209.5 461 208.5C421.5 207.5 510 280 518.5 307.5C527 335 493 367.5 488.5 360C484 352.5 461 340 413 228.5C412.065 229.894 411.131 231.271 410.199 232.631C368.865 292.93 330.68 319.969 316.5 326C302 320 279.5 303.4 305.5 285C331.5 266.6 386.132 242.421 410.199 232.631C411.131 231.271 412.065 229.894 413 228.5C349.333 248.167 222.9 282.4 226.5 262C231 236.5 431 212 436 184.5C441 157 273 219 267 199C261 179 449 150 461 130.5C473 111 318.5 160.5 338 139C357.5 117.5 502.5 78.2727 383 93.5Z" fill="#125311"/>
<path d="M480 139L453 175M480 139L560 117.5M480 139L464.5 93.5M426 211L480 317M426 211L263.5 252.5M426 211L453 175M453 175L500.5 200L560 267M453 175L436 159.5L300.5 191.5M560 117.5L578 93.5H605.5M560 117.5L578 139L622.5 159.5M464.5 93.5L480 66L403.5 79.5M464.5 93.5L445.5 108L436 110.982L377 129.5" stroke="#192400"/>
<circle cx="157" cy="361" r="5" fill="#E3FFE6"/>
<circle cx="157" cy="361" r="3" fill="#003405"/>
<path d="M160 363C160 363.552 159.552 364 159 364C158.448 364 158 363.552 158 363C158 362.448 158.448 362 159 362C159.552 362 160 362.448 160 363Z" fill="#E00000"/>
<defs>
<filter id="filter0_b_7_49" x="-4" y="-4" width="725.609" height="551.786" filterUnits="userSpaceOnUse" color-interpolation-filters="sRGB">
<feFlood flood-opacity="0" result="BackgroundImageFix"/>
<feGaussianBlur in="BackgroundImage" stdDeviation="2"/>
<feComposite in2="SourceAlpha" operator="in" result="effect1_backgroundBlur_7_49"/>
<feBlend mode="normal" in="SourceGraphic" in2="effect1_backgroundBlur_7_49" result="shape"/>
</filter>
</defs>
</svg>
