<svg width="716" height="973" viewBox="0 0 716 973" fill="none" xmlns="http://www.w3.org/2000/svg">
<path d="M427.759 445.309C438.759 466.309 459.086 504.82 465.259 509.309C470.759 513.309 642.149 564.375 667.259 554.809M667.259 554.809C688.259 546.809 689.259 525.809 678.259 502.809C678.259 489.209 686.925 483.142 691.259 481.809C696.059 471.009 691.259 465.642 688.259 464.309C675.859 462.309 675.259 461.809 673.259 458.809C694.459 455.209 697.092 444.976 695.759 440.309C677.759 423.909 683.259 413.809 688.259 410.809C713.859 390.409 715.925 379.642 713.759 376.809L650.259 325.809C636.259 310.609 636.092 288.476 637.759 279.309C630.559 228.909 587.259 182.976 567.759 167.309M667.259 554.809C635.659 560.009 613.425 554.976 606.259 551.809C562.259 547.409 552.759 551.809 543.259 554.809C525.759 563.309 514.259 586.976 510.259 597.309L493.259 630.309M567.759 167.309C580.959 109.309 534.592 39.8089 509.759 12.3089M567.759 167.309C524.925 232.142 412.658 365.909 306.258 382.309C250.925 382.976 144.358 356.109 160.759 243.309M509.759 12.3089C435.359 -27.6911 318.425 47.9756 269.259 90.8089L217.259 121.809C208.059 109.409 186.759 124.642 177.259 133.809C170.059 141.409 163.259 128.976 160.759 121.809C136.359 115.809 129.258 128.809 129.259 133.809C79.2585 201.809 129.425 235.142 160.759 243.309M509.759 12.3089C473.758 1.61306 435.458 54.0089 392.258 90.8089C344.092 153.642 230.358 272.109 160.759 243.309" stroke="#040700" stroke-width="2"/>
<g filter="url(#filter0_b_9_101)">
<path d="M230.086 588.5C277.586 514 198 546.5 241.5 371.5C208 364 145 324 161 243C142 262 98.1862 305.4 80.5862 327C58.5862 354 47.5862 380.5 44.5862 415.5C41.5862 450.5 49.5862 434.5 80.5862 467.5C111.586 500.5 90.5862 488.5 70.5862 524.5C50.5862 560.5 70.5862 535.5 70.5862 576.5C70.5862 617.5 94.5862 588.5 117.586 640C127.586 664 112.586 680 107.586 710C102.586 740 113.586 734 127.586 734C141.586 734 140.586 749 140.586 768C140.586 787 143.586 791 146.586 807C149.586 823 168.586 821 197.586 826C226.586 831 196.586 840 197.586 860C198.586 880 210.586 879.5 223.086 879.5C235.586 879.5 237.086 867 246.086 860C255.086 853 246.086 869.5 253.086 898.5C260.086 927.5 266.086 898.5 279.086 879.5C292.086 860.5 293.086 879.5 293.086 898.5C293.086 917.5 322.086 895.5 337.086 879.5C337.086 866 334.086 831.2 322.086 800C286.086 693.5 182.586 663 230.086 588.5Z" fill="#8DB530"/>
</g>
<path d="M75 598.5C20.6 685.3 33 755 46 779C63 846.5 6.99999 901 6.99999 911C6.99999 921 -11 930 17.5 944.5C46 959 64 986 82.5 962C101 938 135 911.5 131 881C127 850.5 121 836 131 814C139 796.4 141 778.333 141 771.5" stroke="#040700" stroke-width="2"/>
<circle cx="411.586" cy="361.5" r="90" fill="#C0F73E" stroke="#042803" stroke-width="15"/>
<path d="M432.5 458.5C339.7 577.7 344.167 654.5 358 678C376.667 709.333 399.1 774.9 339.5 786.5H318" stroke="#040700" stroke-width="2"/>
<path d="M546.5 340C566.833 344.5 608.5 346.8 612.5 320C604.167 324.333 581.7 333 558.5 333L546.5 340Z" fill="#042803"/>
<g filter="url(#filter1_d_9_101)">
<path d="M367 570.5C365.167 572.667 365.4 569.1 381 537.5C384.5 530 390.4 517.6 386 528C380.5 541 425 590.5 503 612C504.333 609.667 499.71 618.5 493.5 630C480 655 401.5 629.5 367 570.5Z" fill="#7BA41A"/>
</g>
<path d="M330 381.006H492.002" stroke="black"/>
<path d="M334.5 395.5H487.5" stroke="black"/>
<path d="M329 367.5H494.5" stroke="black"/>
<line x1="329" y1="354.5" x2="494" y2="354.5" stroke="black"/>
<line x1="330.998" y1="342.006" x2="494.001" y2="342.006" stroke="black"/>
<g clip-path="url(#clip0_9_101)">
<g filter="url(#filter2_d_9_101)">
<path fill-rule="evenodd" clip-rule="evenodd" d="M414.311 369.032C412.261 369.601 410.413 370.874 408.699 372.817C406.985 374.794 406.145 376.972 406.145 379.317C406.145 380.791 406.649 382.466 407.624 384.241C408.598 386.051 410.077 387.357 411.992 388.195C412.631 388.329 412.933 388.664 412.933 389.133C412.933 389.3 412.698 389.468 412.127 389.602C409.069 388.831 406.549 387.19 404.6 384.744C402.651 382.265 401.643 379.451 401.575 376.234C401.676 372.784 402.718 369.568 404.7 366.619C406.717 363.638 409.304 361.527 412.463 360.287L410.144 348.394C404.969 352.682 400.769 357.138 397.509 361.829C394.25 366.485 392.57 371.544 392.435 377.005C392.502 379.451 393.006 381.829 393.947 384.107C394.888 386.419 396.3 388.496 398.181 390.406C401.979 394.192 406.918 396.168 412.933 396.369C414.983 396.235 417.167 395.867 419.52 395.264L414.311 369.032ZM416.73 368.696L421.973 394.46C427.148 392.383 429.735 387.86 429.735 380.958C429.433 378.647 428.761 376.57 427.618 374.727C426.509 372.851 425.031 371.377 423.149 370.305C421.267 369.233 419.15 368.696 416.73 368.696ZM409.842 333.854C410.951 333.184 412.228 332.012 413.605 330.37C414.983 328.762 416.327 326.852 417.604 324.708C418.915 322.531 419.956 320.319 420.729 318.075C421.502 315.864 421.872 313.753 421.872 311.81C421.872 310.972 421.805 310.135 421.637 309.398C421.502 308.192 421.133 307.254 420.494 306.617C419.856 306.014 419.049 305.679 418.041 305.679C416.025 305.679 414.21 306.919 412.597 309.398C411.354 311.542 410.312 314.088 409.573 316.969C408.8 319.884 408.363 322.765 408.296 325.68C408.464 328.996 409.002 331.71 409.842 333.854ZM407.725 335.797C406.213 330.37 405.373 324.842 405.204 319.214C405.238 315.596 405.608 312.212 406.313 309.063C406.985 305.913 407.96 303.2 409.237 300.855C410.48 298.51 411.925 296.734 413.538 295.528C414.983 294.456 416.025 293.886 416.596 293.886C417.033 293.886 417.403 294.054 417.739 294.355C418.075 294.657 418.511 295.159 419.049 295.829C423.048 301.491 425.064 308.326 425.064 316.299C425.064 320.085 424.56 323.77 423.552 327.455C422.578 331.107 421.133 334.591 419.217 337.841C417.268 341.124 414.983 343.972 412.328 346.418L415.05 359.617C416.529 359.45 417.537 359.316 418.108 359.316C420.662 359.316 422.947 359.852 425.064 360.924C427.181 361.996 428.996 363.437 430.474 365.279C431.953 367.088 433.095 369.166 433.902 371.511C434.675 373.856 435.112 376.301 435.112 378.848C435.112 382.801 434.07 386.419 431.986 389.669C429.903 392.919 426.778 395.297 422.578 396.838C422.846 398.48 423.317 400.859 424.022 403.907C424.695 406.989 425.199 409.435 425.535 411.244C425.871 413.053 426.005 414.795 426.005 416.504C426.005 419.151 425.367 421.496 424.09 423.573C422.779 425.65 421.032 427.258 418.814 428.397C416.63 429.536 414.21 430.106 411.589 430.106C407.893 430.106 404.667 429.067 401.911 427.024C399.156 424.947 397.677 422.166 397.543 418.615C397.644 417.04 398.013 415.566 398.685 414.159C399.357 412.752 400.265 411.613 401.441 410.742C402.583 409.837 403.961 409.368 405.541 409.268C406.851 409.268 408.094 409.636 409.271 410.34C410.413 411.077 411.354 412.048 412.06 413.288C412.732 414.527 413.101 415.901 413.101 417.375C413.101 419.352 412.429 421.027 411.085 422.4C409.741 423.774 408.027 424.478 405.977 424.478H405.204C406.515 426.488 408.666 427.526 411.656 427.526C413.169 427.526 414.714 427.191 416.26 426.588C417.839 425.952 419.15 425.114 420.259 424.042C421.368 422.97 422.107 421.831 422.409 420.625C422.981 419.251 423.25 417.342 423.25 414.963C423.25 413.355 423.082 411.747 422.779 410.139C422.477 408.564 422.006 406.453 421.368 403.84C420.729 401.261 420.259 399.25 419.99 397.877C417.974 398.379 415.89 398.647 413.706 398.647C410.043 398.647 406.582 397.91 403.323 396.403C400.063 394.895 397.207 392.818 394.72 390.138C392.267 387.458 390.352 384.443 388.974 381.025C387.63 377.642 386.924 374.09 386.891 370.405C387.025 366.988 387.663 363.705 388.873 360.622C390.083 357.507 391.629 354.559 393.544 351.811C395.459 349.064 397.442 346.552 399.492 344.307C401.575 342.096 404.297 339.248 407.725 335.797Z" fill="#131516" stroke="#131516" stroke-width="0.647175"/>
</g>
</g>
<defs>
<filter id="filter0_b_9_101" x="40" y="239" width="301.086" height="675.778" filterUnits="userSpaceOnUse" color-interpolation-filters="sRGB">
<feFlood flood-opacity="0" result="BackgroundImageFix"/>
<feGaussianBlur in="BackgroundImage" stdDeviation="2"/>
<feComposite in2="SourceAlpha" operator="in" result="effect1_backgroundBlur_9_101"/>
<feBlend mode="normal" in="SourceGraphic" in2="effect1_backgroundBlur_9_101" result="shape"/>
</filter>
<filter id="filter1_d_9_101" x="362.22" y="524.017" width="145.01" height="123.541" filterUnits="userSpaceOnUse" color-interpolation-filters="sRGB">
<feFlood flood-opacity="0" result="BackgroundImageFix"/>
<feColorMatrix in="SourceAlpha" type="matrix" values="0 0 0 0 0 0 0 0 0 0 0 0 0 0 0 0 0 0 127 0" result="hardAlpha"/>
<feOffset dy="4"/>
<feGaussianBlur stdDeviation="2"/>
<feComposite in2="hardAlpha" operator="out"/>
<feColorMatrix type="matrix" values="0 0 0 0 0 0 0 0 0 0 0 0 0 0 0 0 0 0 0.25 0"/>
<feBlend mode="normal" in2="BackgroundImageFix" result="effect1_dropShadow_9_101"/>
<feBlend mode="normal" in="SourceGraphic" in2="effect1_dropShadow_9_101" result="shape"/>
</filter>
<filter id="filter2_d_9_101" x="382.567" y="293.563" width="56.8683" height="145.867" filterUnits="userSpaceOnUse" color-interpolation-filters="sRGB">
<feFlood flood-opacity="0" result="BackgroundImageFix"/>
<feColorMatrix in="SourceAlpha" type="matrix" values="0 0 0 0 0 0 0 0 0 0 0 0 0 0 0 0 0 0 127 0" result="hardAlpha"/>
<feOffset dy="5"/>
<feGaussianBlur stdDeviation="2"/>
<feComposite in2="hardAlpha" operator="out"/>
<feColorMatrix type="matrix" values="0 0 0 0 0 0 0 0 0 0 0 0 0 0 0 0 0 0 0.32 0"/>
<feBlend mode="normal" in2="BackgroundImageFix" result="effect1_dropShadow_9_101"/>
<feBlend mode="normal" in="SourceGraphic" in2="effect1_dropShadow_9_101" result="shape"/>
</filter>
<clipPath id="clip0_9_101">
<rect width="50" height="138" fill="white" transform="translate(386 293)"/>
</clipPath>
</defs>
</svg>
